<svg width="180" height="48" viewBox="0 0 180 48" xmlns="http://www.w3.org/2000/svg">
  <!-- Background -->
  <rect width="180" height="48" fill="#001c3d" rx="4"/>
  
  <!-- Police Badge Icon -->
  <g transform="translate(12, 8)">
    <!-- Badge Shape -->
    <path d="M16 4 L28 4 L28 8 L30 10 L30 20 L28 22 L16 32 L4 22 L2 20 L2 10 L4 8 L4 4 Z" 
          fill="white" stroke="#001c3d" stroke-width="0.5"/>
    
    <!-- Star -->
    <polygon points="16,12 17.5,16 21,16 18.5,18.5 20,22 16,19.5 12,22 13.5,18.5 11,16 14.5,16" 
             fill="#001c3d"/>
    
    <!-- Text lines -->
    <rect x="6" y="24" width="20" height="1" fill="#001c3d"/>
    <rect x="8" y="26" width="16" height="1" fill="#001c3d"/>
  </g>
  
  <!-- Text -->
  <g fill="white" font-family="system-ui, sans-serif" font-weight="600">
    <text x="50" y="20" font-size="14">STADTPOLIZEI</text>
    <text x="50" y="35" font-size="11" fill="#e6eef2">ZÜRICH</text>
  </g>
  
  <!-- Divider -->
  <line x1="140" y1="12" x2="140" y2="36" stroke="#0076a8" stroke-width="2"/>
  
  <!-- KI Section -->
  <g fill="#0076a8" font-family="system-ui, sans-serif" font-weight="600">
    <text x="150" y="22" font-size="12">KI</text>
    <text x="145" y="35" font-size="8" fill="#e6eef2">KARRIERE</text>
  </g>
</svg> 