<svg width="50" height="60" viewBox="0 0 50 60" xmlns="http://www.w3.org/2000/svg">
  <!-- Shield Background -->
  <path d="M25 2 L46 8 L46 35 C46 45 35 58 25 58 C15 58 4 45 4 35 L4 8 Z" 
        fill="#003366" stroke="#001c3d" stroke-width="1"/>
  
  <!-- Crown -->
  <rect x="20" y="8" width="10" height="3" fill="#FFD700"/>
  <rect x="18" y="11" width="2" height="3" fill="#FFD700"/>
  <rect x="22" y="11" width="2" height="3" fill="#FFD700"/>
  <rect x="26" y="11" width="2" height="3" fill="#FFD700"/>
  <rect x="30" y="11" width="2" height="3" fill="#FFD700"/>
  
  <!-- Left Lion -->
  <g fill="white" stroke="#003366" stroke-width="0.5">
    <!-- Body -->
    <ellipse cx="15" cy="30" rx="4" ry="8"/>
    <!-- Head -->
    <circle cx="13" cy="20" r="3"/>
    <!-- Mane -->
    <circle cx="11" cy="18" r="1.5"/>
    <circle cx="15" cy="17" r="1.5"/>
    <!-- Front legs -->
    <rect x="13" y="35" width="1.5" height="8"/>
    <rect x="16" y="35" width="1.5" height="8"/>
    <!-- Tail -->
    <path d="M19 32 Q22 28 20 24" stroke-width="1" fill="none"/>
  </g>
  
  <!-- Right Lion -->
  <g fill="white" stroke="#003366" stroke-width="0.5">
    <!-- Body -->
    <ellipse cx="35" cy="30" rx="4" ry="8"/>
    <!-- Head -->
    <circle cx="37" cy="20" r="3"/>
    <!-- Mane -->
    <circle cx="39" cy="18" r="1.5"/>
    <circle cx="35" cy="17" r="1.5"/>
    <!-- Front legs -->
    <rect x="33" y="35" width="1.5" height="8"/>
    <rect x="36" y="35" width="1.5" height="8"/>
    <!-- Tail -->
    <path d="M31 32 Q28 28 30 24" stroke-width="1" fill="none"/>
  </g>
  
  <!-- Central Shield -->
  <rect x="22" y="20" width="6" height="8" fill="white" stroke="#003366"/>
  <path d="M22 24 L28 24" stroke="#003366" stroke-width="0.5"/>
  <path d="M22 26 L28 26" stroke="#003366" stroke-width="0.5"/>
  
  <!-- Waves at bottom -->
  <path d="M8 45 Q15 42 22 45 Q29 48 36 45 Q43 42 46 45" 
        fill="none" stroke="white" stroke-width="2"/>
  <path d="M4 50 Q11 47 18 50 Q25 53 32 50 Q39 47 46 50" 
        fill="none" stroke="white" stroke-width="2"/>
</svg> 